<svg xmlns="http://www.w3.org/2000/svg" xmlns:xlink="http://www.w3.org/1999/xlink" version="1.1" width="256" height="256" viewBox="0 0 256 256" xml:space="preserve">

<defs>
</defs>
<g style="stroke: none; stroke-width: 0; stroke-dasharray: none; stroke-linecap: butt; stroke-linejoin: miter; stroke-miterlimit: 10; fill: rgb(223,0,37); fill-rule: nonzero; opacity: 1;" transform="translate(0 -2.842170943040401e-14) scale(2.81 2.81)" >
	<circle cx="45" cy="45" r="45" style="stroke: none; stroke-width: 1; stroke-dasharray: none; stroke-linecap: butt; stroke-linejoin: miter; stroke-miterlimit: 10; fill: rgb(223,0,37); fill-rule: nonzero; opacity: 1;" transform="  matrix(1 0 0 1 0 0) "/>
</g>
<g style="stroke: none; stroke-width: 0; stroke-dasharray: none; stroke-linecap: butt; stroke-linejoin: miter; stroke-miterlimit: 10; fill: none; fill-rule: nonzero; opacity: 1;" transform="translate(28.349791054016393 28.349791054016364) scale(2.22 2.22)" >
	<path d="M 64.207 13.902 H 25.793 c -10.811 0 -19.656 8.845 -19.656 19.656 v 24.19 v 1.023 v 5.119 c 0 6.714 5.493 12.208 12.208 12.208 h 53.311 c 6.714 0 12.208 -5.493 12.208 -12.208 v -5.119 v -1.023 v -24.19 C 83.863 22.748 75.018 13.902 64.207 13.902 z" style="stroke: none; stroke-width: 1; stroke-dasharray: none; stroke-linecap: butt; stroke-linejoin: miter; stroke-miterlimit: 10; fill: rgb(255,164,0); fill-rule: nonzero; opacity: 1;" transform=" matrix(1 0 0 1 0 0) " stroke-linecap="round" />
	<path d="M 84.996 48.762 H 5.004 C 2.241 48.762 0 46.522 0 43.758 v 0 c 0 -2.764 2.241 -5.004 5.004 -5.004 h 79.991 c 2.764 0 5.004 2.241 5.004 5.004 v 0 C 90 46.522 87.759 48.762 84.996 48.762 z" style="stroke: none; stroke-width: 1; stroke-dasharray: none; stroke-linecap: butt; stroke-linejoin: miter; stroke-miterlimit: 10; fill: rgb(116,69,39); fill-rule: nonzero; opacity: 1;" transform=" matrix(1 0 0 1 0 0) " stroke-linecap="round" />
	<path d="M 84.996 48.762 H 5.004 C 2.241 48.762 0 51.003 0 53.767 c 0 2.764 2.241 5.004 5.004 5.004 h 45.064 V 60.2 c 0 2.761 2.239 5 5 5 c 2.761 0 5 -2.239 5 -5 v 5.19 c 0 2.761 2.239 5 5 5 c 2.761 0 5 -2.239 5 -5 v -6.619 h 14.927 c 2.764 0 5.004 -2.241 5.004 -5.004 C 90 51.003 87.759 48.762 84.996 48.762 z" style="stroke: none; stroke-width: 1; stroke-dasharray: none; stroke-linecap: butt; stroke-linejoin: miter; stroke-miterlimit: 10; fill: rgb(254,228,90); fill-rule: nonzero; opacity: 1;" transform=" matrix(1 0 0 1 0 0) " stroke-linecap="round" />
	<path d="M 45 29.315 c -0.565 0 -1.023 -0.458 -1.023 -1.023 v -2.216 c 0 -0.565 0.458 -1.023 1.023 -1.023 s 1.023 0.458 1.023 1.023 v 2.216 C 46.023 28.857 45.565 29.315 45 29.315 z" style="stroke: none; stroke-width: 1; stroke-dasharray: none; stroke-linecap: butt; stroke-linejoin: miter; stroke-miterlimit: 10; fill: rgb(226,122,52); fill-rule: nonzero; opacity: 1;" transform=" matrix(1 0 0 1 0 0) " stroke-linecap="round" />
	<path d="M 58.219 25.349 c -0.565 0 -1.023 -0.458 -1.023 -1.023 v -2.216 c 0 -0.565 0.457 -1.023 1.023 -1.023 s 1.023 0.458 1.023 1.023 v 2.216 C 59.241 24.892 58.784 25.349 58.219 25.349 z" style="stroke: none; stroke-width: 1; stroke-dasharray: none; stroke-linecap: butt; stroke-linejoin: miter; stroke-miterlimit: 10; fill: rgb(226,122,52); fill-rule: nonzero; opacity: 1;" transform=" matrix(1 0 0 1 0 0) " stroke-linecap="round" />
	<path d="M 71.438 29.315 c -0.565 0 -1.023 -0.458 -1.023 -1.023 v -2.216 c 0 -0.565 0.457 -1.023 1.023 -1.023 c 0.565 0 1.023 0.458 1.023 1.023 v 2.216 C 72.461 28.857 72.003 29.315 71.438 29.315 z" style="stroke: none; stroke-width: 1; stroke-dasharray: none; stroke-linecap: butt; stroke-linejoin: miter; stroke-miterlimit: 10; fill: rgb(226,122,52); fill-rule: nonzero; opacity: 1;" transform=" matrix(1 0 0 1 0 0) " stroke-linecap="round" />
	<path d="M 31.781 25.349 c -0.565 0 -1.023 -0.458 -1.023 -1.023 v -2.216 c 0 -0.565 0.458 -1.023 1.023 -1.023 c 0.565 0 1.023 0.458 1.023 1.023 v 2.216 C 32.804 24.892 32.346 25.349 31.781 25.349 z" style="stroke: none; stroke-width: 1; stroke-dasharray: none; stroke-linecap: butt; stroke-linejoin: miter; stroke-miterlimit: 10; fill: rgb(226,122,52); fill-rule: nonzero; opacity: 1;" transform=" matrix(1 0 0 1 0 0) " stroke-linecap="round" />
	<path d="M 18.562 29.315 c -0.565 0 -1.023 -0.458 -1.023 -1.023 v -2.216 c 0 -0.565 0.458 -1.023 1.023 -1.023 c 0.565 0 1.023 0.458 1.023 1.023 v 2.216 C 19.585 28.857 19.127 29.315 18.562 29.315 z" style="stroke: none; stroke-width: 1; stroke-dasharray: none; stroke-linecap: butt; stroke-linejoin: miter; stroke-miterlimit: 10; fill: rgb(226,122,52); fill-rule: nonzero; opacity: 1;" transform=" matrix(1 0 0 1 0 0) " stroke-linecap="round" />
</g>
</svg>