<svg xmlns="http://www.w3.org/2000/svg" xmlns:xlink="http://www.w3.org/1999/xlink" version="1.1" width="256" height="256" viewBox="0 0 256 256" xml:space="preserve">

<defs>
</defs>
<g style="stroke: none; stroke-width: 0; stroke-dasharray: none; stroke-linecap: butt; stroke-linejoin: miter; stroke-miterlimit: 10; fill: rgb(200,15,46); fill-rule: nonzero; opacity: 1;" transform="translate(0 -2.842170943040401e-14) scale(2.81 2.81)" >
	<circle cx="45" cy="45" r="45" style="stroke: none; stroke-width: 1; stroke-dasharray: none; stroke-linecap: butt; stroke-linejoin: miter; stroke-miterlimit: 10; fill: rgb(200,15,46); fill-rule: nonzero; opacity: 1;" transform="  matrix(1 0 0 1 0 0) "/>
</g>
<g style="stroke: none; stroke-width: 0; stroke-dasharray: none; stroke-linecap: butt; stroke-linejoin: miter; stroke-miterlimit: 10; fill: none; fill-rule: nonzero; opacity: 1;" transform="translate(32.807305370685654 32.807305370685626) scale(2.12 2.12)" >
	<path d="M 65.358 90 H 24.642 c -2.919 0 -5.285 -2.366 -5.285 -5.284 l 0.098 -8.449 c 16.754 -3.119 33.793 -3.353 51.187 0 v 8.449 C 70.642 87.634 68.276 90 65.358 90 z" style="stroke: none; stroke-width: 1; stroke-dasharray: none; stroke-linecap: butt; stroke-linejoin: miter; stroke-miterlimit: 10; fill: rgb(168,168,168); fill-rule: nonzero; opacity: 1;" transform=" matrix(1 0 0 1 0 0) " stroke-linecap="round" />
	<path d="M 19.456 76.266 h 51.187 V 9.767 V 9.733 V 5.284 C 70.642 2.366 68.276 0 65.358 0 H 24.642 c -2.919 0 -5.285 2.366 -5.285 5.284 v 4.483 v 19.566" style="stroke: none; stroke-width: 1; stroke-dasharray: none; stroke-linecap: butt; stroke-linejoin: miter; stroke-miterlimit: 10; fill: rgb(255,164,0); fill-rule: nonzero; opacity: 1;" transform=" matrix(1 0 0 1 0 0) " stroke-linecap="round" />
	<path d="M 65.358 0 H 24.642 c -2.919 0 -5.285 2.366 -5.285 5.284 v 4.449 h 51.285 V 5.284 C 70.642 2.366 68.276 0 65.358 0 z" style="stroke: none; stroke-width: 1; stroke-dasharray: none; stroke-linecap: butt; stroke-linejoin: miter; stroke-miterlimit: 10; fill: rgb(168,168,168); fill-rule: nonzero; opacity: 1;" transform=" matrix(1 0 0 1 0 0) " stroke-linecap="round" />
	<circle cx="45.001" cy="83.17099999999999" r="2.591" style="stroke: none; stroke-width: 1; stroke-dasharray: none; stroke-linecap: butt; stroke-linejoin: miter; stroke-miterlimit: 10; fill: rgb(242,242,242); fill-rule: nonzero; opacity: 1;" transform="  matrix(1 0 0 1 0 0) "/>
	<path d="M 51.181 5.855 H 38.819 c -0.552 0 -1 -0.448 -1 -1 s 0.448 -1 1 -1 h 12.362 c 0.553 0 1 0.448 1 1 S 51.733 5.855 51.181 5.855 z" style="stroke: none; stroke-width: 1; stroke-dasharray: none; stroke-linecap: butt; stroke-linejoin: miter; stroke-miterlimit: 10; fill: rgb(242,242,242); fill-rule: nonzero; opacity: 1;" transform=" matrix(1 0 0 1 0 0) " stroke-linecap="round" />
	<path d="M 17.714 29.12 h -0.305 c -3.704 0 -6.707 -3.003 -6.707 -6.707 v -2.328 c 4.178 -1.403 8.713 -1.537 13.719 0 v 2.328 C 24.421 26.117 21.418 29.12 17.714 29.12 z" style="stroke: none; stroke-width: 1; stroke-dasharray: none; stroke-linecap: butt; stroke-linejoin: miter; stroke-miterlimit: 10; fill: rgb(231,78,58); fill-rule: nonzero; opacity: 1;" transform=" matrix(1 0 0 1 0 0) " stroke-linecap="round" />
	<path d="M 31.433 29.12 h -0.305 c -3.704 0 -6.707 -3.003 -6.707 -6.707 v -2.328 c 4.869 -0.992 9.472 -1.092 13.719 0 v 2.328 C 38.14 26.117 35.137 29.12 31.433 29.12 z" style="stroke: none; stroke-width: 1; stroke-dasharray: none; stroke-linecap: butt; stroke-linejoin: miter; stroke-miterlimit: 10; fill: rgb(168,168,168); fill-rule: nonzero; opacity: 1;" transform=" matrix(1 0 0 1 0 0) " stroke-linecap="round" />
	<path d="M 72.286 29.12 h 0.305 c 3.704 0 6.707 -3.003 6.707 -6.707 v -2.328 c -4.26 -1.13 -8.881 -0.955 -13.719 0 v 2.328 C 65.579 26.117 68.582 29.12 72.286 29.12 z" style="stroke: none; stroke-width: 1; stroke-dasharray: none; stroke-linecap: butt; stroke-linejoin: miter; stroke-miterlimit: 10; fill: rgb(231,78,58); fill-rule: nonzero; opacity: 1;" transform=" matrix(1 0 0 1 0 0) " stroke-linecap="round" />
	<path d="M 58.567 29.12 h 0.305 c 3.704 0 6.707 -3.003 6.707 -6.707 v -2.328 c -4.573 -1.95 -9.146 -1.95 -13.719 0 v 2.328 C 51.86 26.117 54.863 29.12 58.567 29.12 z" style="stroke: none; stroke-width: 1; stroke-dasharray: none; stroke-linecap: butt; stroke-linejoin: miter; stroke-miterlimit: 10; fill: rgb(168,168,168); fill-rule: nonzero; opacity: 1;" transform=" matrix(1 0 0 1 0 0) " stroke-linecap="round" />
	<path d="M 38.14 20.084 c 0.708 -3.035 0.656 -6.592 0 -10.565 h -9.737 c -2.615 3.522 -3.943 7.043 -3.983 10.565 H 38.14 z" style="stroke: none; stroke-width: 1; stroke-dasharray: none; stroke-linecap: butt; stroke-linejoin: miter; stroke-miterlimit: 10; fill: rgb(214,224,235); fill-rule: nonzero; opacity: 1;" transform=" matrix(1 0 0 1 0 0) " stroke-linecap="round" />
	<polygon points="10.7,20.08 19.39,9.52 28.4,9.52 24.42,20.08 " style="stroke: none; stroke-width: 1; stroke-dasharray: none; stroke-linecap: butt; stroke-linejoin: miter; stroke-miterlimit: 10; fill: rgb(255,112,88); fill-rule: nonzero; opacity: 1;" transform="  matrix(1 0 0 1 0 0) "/>
	<path d="M 51.86 20.084 c -1.652 -3.421 -1.411 -6.958 0 -10.565 h 9.737 c 3.25 3.955 4.74 7.513 3.983 10.565 H 51.86 z" style="stroke: none; stroke-width: 1; stroke-dasharray: none; stroke-linecap: butt; stroke-linejoin: miter; stroke-miterlimit: 10; fill: rgb(214,224,235); fill-rule: nonzero; opacity: 1;" transform=" matrix(1 0 0 1 0 0) " stroke-linecap="round" />
	<polygon points="79.3,20.08 70.61,9.52 61.6,9.52 65.58,20.08 " style="stroke: none; stroke-width: 1; stroke-dasharray: none; stroke-linecap: butt; stroke-linejoin: miter; stroke-miterlimit: 10; fill: rgb(255,112,88); fill-rule: nonzero; opacity: 1;" transform="  matrix(1 0 0 1 0 0) "/>
	<path d="M 45.152 29.12 h -0.305 c -3.704 0 -6.707 -3.003 -6.707 -6.707 v -2.328 c 4.573 -1.95 9.146 -1.95 13.719 0 v 2.328 C 51.86 26.117 48.857 29.12 45.152 29.12 z" style="stroke: none; stroke-width: 1; stroke-dasharray: none; stroke-linecap: butt; stroke-linejoin: miter; stroke-miterlimit: 10; fill: rgb(231,78,58); fill-rule: nonzero; opacity: 1;" transform=" matrix(1 0 0 1 0 0) " stroke-linecap="round" />
	<polygon points="38.14,9.52 46.34,9.52 51.86,9.52 51.86,20.08 38.14,20.08 " style="stroke: none; stroke-width: 1; stroke-dasharray: none; stroke-linecap: butt; stroke-linejoin: miter; stroke-miterlimit: 10; fill: rgb(255,112,88); fill-rule: nonzero; opacity: 1;" transform="  matrix(1 0 0 1 0 0) "/>
</g>
</svg>